<svg width="85" height="85" viewBox="0 0 85 85" fill="none" xmlns="http://www.w3.org/2000/svg">
<path d="M42.5007 7.08337C43.44 7.08337 44.3408 7.45651 45.005 8.1207C45.6692 8.7849 46.0423 9.68573 46.0423 10.625V21.25C46.0423 22.1893 45.6692 23.0902 45.005 23.7544C44.3408 24.4186 43.44 24.7917 42.5007 24.7917C41.5613 24.7917 40.6605 24.4186 39.9963 23.7544C39.3321 23.0902 38.959 22.1893 38.959 21.25V10.625C38.959 9.68573 39.3321 8.7849 39.9963 8.1207C40.6605 7.45651 41.5613 7.08337 42.5007 7.08337ZM42.5007 60.2084C43.44 60.2084 44.3408 60.5815 45.005 61.2457C45.6692 61.9099 46.0423 62.8107 46.0423 63.75V74.375C46.0423 75.3144 45.6692 76.2152 45.005 76.8794C44.3408 77.5436 43.44 77.9167 42.5007 77.9167C41.5613 77.9167 40.6605 77.5436 39.9963 76.8794C39.3321 76.2152 38.959 75.3144 38.959 74.375V63.75C38.959 62.8107 39.3321 61.9099 39.9963 61.2457C40.6605 60.5815 41.5613 60.2084 42.5007 60.2084ZM77.9173 42.5C77.9173 43.4393 77.5442 44.3402 76.88 45.0044C76.2158 45.6686 75.315 46.0417 74.3757 46.0417H63.7507C62.8113 46.0417 61.9105 45.6686 61.2463 45.0044C60.5821 44.3402 60.209 43.4393 60.209 42.5C60.209 41.5607 60.5821 40.6599 61.2463 39.9957C61.9105 39.3315 62.8113 38.9584 63.7507 38.9584H74.3757C75.315 38.9584 76.2158 39.3315 76.88 39.9957C77.5442 40.6599 77.9173 41.5607 77.9173 42.5ZM24.7923 42.5C24.7923 43.4393 24.4192 44.3402 23.755 45.0044C23.0908 45.6686 22.19 46.0417 21.2507 46.0417H10.6257C9.68634 46.0417 8.78551 45.6686 8.12131 45.0044C7.45712 44.3402 7.08398 43.4393 7.08398 42.5C7.08398 41.5607 7.45712 40.6599 8.12131 39.9957C8.78551 39.3315 9.68634 38.9584 10.6257 38.9584H21.2507C22.19 38.9584 23.0908 39.3315 23.755 39.9957C24.4192 40.6599 24.7923 41.5607 24.7923 42.5ZM67.5438 67.5432C66.8796 68.2071 65.9789 68.5801 65.0398 68.5801C64.1007 68.5801 63.2 68.2071 62.5359 67.5432L55.024 60.0313C54.3788 59.3633 54.0219 58.4687 54.0299 57.5401C54.038 56.6115 54.4105 55.7232 55.0671 55.0665C55.7238 54.4099 56.6121 54.0374 57.5407 54.0293C58.4693 54.0213 59.3639 54.3782 60.0319 55.0234L67.5438 62.5317C67.8731 62.8606 68.1343 63.2512 68.3125 63.6812C68.4908 64.1111 68.5825 64.572 68.5825 65.0374C68.5825 65.5029 68.4908 65.9637 68.3125 66.3937C68.1343 66.8236 67.8731 67.2142 67.5438 67.5432ZM29.9773 29.9767C29.3132 30.6407 28.4125 31.0137 27.4734 31.0137C26.5342 31.0137 25.6336 30.6407 24.9694 29.9767L17.4611 22.4684C16.7965 21.8043 16.423 20.9034 16.4226 19.9639C16.4223 19.0244 16.7952 18.1232 17.4593 17.4587C18.1234 16.7941 19.0243 16.4206 19.9638 16.4203C20.9033 16.4199 21.8044 16.7928 22.469 17.4569L29.9773 24.9688C30.6413 25.633 31.0143 26.5336 31.0143 27.4727C31.0143 28.4119 30.6413 29.3125 29.9773 29.9767ZM17.4611 67.5432C16.7971 66.879 16.4241 65.9783 16.4241 65.0392C16.4241 64.1001 16.7971 63.1994 17.4611 62.5352L24.9729 55.0234C25.2997 54.6851 25.6905 54.4153 26.1226 54.2297C26.5546 54.0441 27.0194 53.9464 27.4896 53.9423C27.9599 53.9382 28.4263 54.0278 28.8615 54.2059C29.2968 54.384 29.6922 54.6469 30.0248 54.9795C30.3573 55.312 30.6203 55.7074 30.7984 56.1427C30.9764 56.578 31.066 57.0443 31.062 57.5146C31.0579 57.9848 30.9602 58.4496 30.7746 58.8817C30.5889 59.3138 30.3191 59.7046 29.9809 60.0313L22.4725 67.5432C22.1436 67.8725 21.753 68.1337 21.323 68.3119C20.8931 68.4902 20.4322 68.5819 19.9668 68.5819C19.5014 68.5819 19.0405 68.4902 18.6105 68.3119C18.1806 68.1337 17.79 67.8725 17.4611 67.5432ZM55.024 29.9767C54.36 29.3125 53.987 28.4119 53.987 27.4727C53.987 26.5336 54.36 25.633 55.024 24.9688L62.5323 17.4569C63.1964 16.7924 64.0973 16.4188 65.0368 16.4185C65.9763 16.4182 66.8774 16.7911 67.542 17.4551C68.2066 18.1192 68.5801 19.0201 68.5804 19.9596C68.5808 20.8991 68.2079 21.8003 67.5438 22.4648L60.0319 29.9767C59.3677 30.6407 58.4671 31.0137 57.5279 31.0137C56.5888 31.0137 55.6881 30.6407 55.024 29.9767Z" fill="#46760A"/>
</svg>
